<?xml version="1.0" standalone="no"?><!DOCTYPE svg PUBLIC "-//W3C//DTD SVG 1.1//EN" "http://www.w3.org/Graphics/SVG/1.1/DTD/svg11.dtd"><svg t="1562233513816" class="icon" viewBox="0 0 1024 1024" version="1.1" xmlns="http://www.w3.org/2000/svg" p-id="22545" xmlns:xlink="http://www.w3.org/1999/xlink" width="64" height="64"><defs><style type="text/css"></style></defs><path d="M894.976 466.944c-48.3328-0.6144-92.16 28.0576-111.2064 72.4992l-67.8912-14.5408c0.512-6.5536 0.512-13.1072 0-19.5584-0.6144-76.1856-46.1824-144.6912-116.224-174.592l31.4368-76.5952c7.2704 0.4096 14.5408 0.4096 21.9136 0 64.3072 2.048 118.272-48.2304 120.7296-112.5376-3.8912-63.1808-56.32-112.4352-119.6032-112.4352S538.4192 78.4384 534.528 141.6192c0.3072 42.7008 24.6784 81.6128 62.8736 100.6592l-31.4368 76.5952c-17.1008-4.3008-34.7136-6.4512-52.4288-6.3488-47.0016 0.1024-92.672 16.1792-129.4336 45.568l-154.5216-149.504c14.6432-19.2512 22.7328-42.8032 22.8352-66.9696-1.7408-64.512-55.296-115.4048-119.808-113.8688-31.0272-0.8192-61.2352 10.6496-83.7632 32.0512S13.1072 110.592 12.288 141.7216c0.7168 31.1296 13.824 60.7232 36.352 82.2272S101.376 257.024 132.5056 256.1024c25.088-0.6144 49.3568-8.704 69.7344-23.2448l155.8528 150.3232c-29.184 33.9968-45.3632 77.312-45.568 122.1632 0 37.2736 11.264 73.6256 32.3584 104.3456l-132.1984 99.328c-22.3232-19.456-50.9952-30.208-80.6912-30.1056-43.1104-3.8912-84.7872 16.9984-107.52 53.76a114.4832 114.4832 0 0 0 0 120.2176c22.7328 36.864 64.4096 57.6512 107.52 53.76 30.9248 0.7168 60.928-10.8544 83.2512-32.256 22.4256-21.4016 35.328-50.7904 36.0448-81.7152-0.1024-19.3536-5.12-38.2976-14.5408-55.0912l132.1984-99.328c38.8096 38.2976 91.2384 59.5968 145.8176 59.1872 25.1904 0.1024 50.176-4.4032 73.8304-13.2096l56.5248 95.232c-30.0032 20.6848-48.128 54.6816-48.7424 91.136-2.4576 48.9472 25.1904 94.4128 69.7344 114.8928 44.544 20.48 97.0752 11.6736 132.5056-22.016 35.5328-33.792 46.8992-85.7088 28.7744-131.2768-18.1248-45.4656-62.1568-75.3664-111.2064-75.4688-11.6736 0-23.3472 1.6384-34.6112 5.0176L624.64 667.4432c39.1168-23.8592 68.5056-60.8256 82.944-104.3456l67.8912 14.5408v3.6864C773.12 630.272 800.768 675.84 845.4144 696.2176c44.544 20.3776 97.0752 11.5712 132.608-22.2208 35.4304-33.8944 46.7968-85.9136 28.4672-131.3792-18.3296-45.4656-62.464-75.264-111.5136-75.1616v-0.512zM513.536 661.0944c-41.6768 0.6144-81.92-15.36-111.8208-44.4416-29.9008-29.0816-47.0016-68.8128-47.616-110.4896 2.9696-85.6064 73.8304-152.9856 159.5392-151.7568 86.528-2.56 158.8224 65.2288 161.792 151.7568-0.6144 42.0864-18.0224 82.2272-48.4352 111.3088-30.5152 29.0816-71.3728 44.8512-113.4592 43.6224z m0 0" fill="#ffffff" p-id="22546"></path></svg>